<svg width="65" height="14" viewBox="0 0 65 14" fill="none" xmlns="http://www.w3.org/2000/svg">
<circle cx="7" cy="7" r="7" fill="#F7DE44"/>
<path d="M7.01434 1.66861C7.04904 1.66851 7.08374 1.6684 7.11949 1.66829C7.15305 1.66832 7.18661 1.66836 7.22118 1.6684C7.25155 1.66843 7.28191 1.66846 7.3132 1.66849C7.39968 1.67205 7.48125 1.68366 7.5662 1.69976C7.63371 1.96674 7.69925 2.23394 7.75996 2.50257C7.79008 2.50927 7.82019 2.51598 7.85122 2.5229C8.07121 2.57282 8.2843 2.62617 8.49574 2.7064C8.57133 2.72631 8.60064 2.72208 8.67339 2.69635C8.7209 2.66018 8.7209 2.66018 8.7641 2.61373C8.78061 2.59696 8.79711 2.58019 8.81411 2.56291C8.83104 2.54528 8.84797 2.52765 8.86542 2.50949C8.89065 2.48369 8.89065 2.48369 8.9164 2.45736C8.94932 2.42369 8.98217 2.38993 9.01494 2.35609C9.07574 2.29352 9.13743 2.23189 9.1993 2.17037C9.52261 2.27347 9.8997 2.48329 10.1404 2.72403C10.1265 2.92296 10.0668 3.09825 10.0019 3.28559C9.99072 3.31915 9.99072 3.31915 9.97931 3.35339C9.97238 3.37343 9.96545 3.39348 9.95832 3.41413C9.94471 3.48105 9.95019 3.51864 9.97433 3.58221C10.0359 3.64567 10.0359 3.64567 10.1127 3.70851C10.271 3.84735 10.3992 3.9964 10.5279 4.16355C10.669 4.12678 10.8092 4.08888 10.9473 4.04222C10.967 4.0357 10.9866 4.02917 11.0068 4.02245C11.0458 4.00939 11.0847 3.99599 11.1235 3.98224C11.1996 3.95696 11.2578 3.93813 11.3372 3.95614C11.4056 4.01408 11.4439 4.07787 11.4898 4.1549C11.4992 4.1706 11.5085 4.18631 11.5182 4.20249C11.591 4.32585 11.6604 4.45108 11.7285 4.57707C11.7378 4.59406 11.747 4.61105 11.7565 4.62856C11.81 4.72953 11.8512 4.82932 11.8842 4.93868C11.8608 4.96009 11.8374 4.9815 11.8133 5.00356C11.6395 5.16302 11.468 5.32374 11.303 5.49234C11.3077 5.50835 11.3124 5.52437 11.3173 5.54087C11.4853 6.11081 11.4853 6.11081 11.5244 6.3782C11.5575 6.38523 11.5905 6.39226 11.6246 6.3995C12.2296 6.52984 12.2296 6.52984 12.2994 6.59966C12.3333 6.77307 12.3322 6.94599 12.3323 7.12218C12.3326 7.15091 12.333 7.17963 12.3333 7.20923C12.3336 7.38407 12.3164 7.53786 12.2717 7.70698C12.1887 7.72892 12.1057 7.75083 12.0226 7.77273C11.9994 7.77887 11.9762 7.78501 11.9522 7.79133C11.8099 7.82886 11.6673 7.86536 11.5244 7.90077C11.5188 7.92626 11.5188 7.92626 11.513 7.95228C11.4956 8.03087 11.478 8.10942 11.4604 8.18798C11.4545 8.21471 11.4486 8.24143 11.4425 8.26897C11.4031 8.44403 11.357 8.61552 11.303 8.78662C11.4591 8.9454 11.6143 9.10255 11.7857 9.24513C11.8289 9.28492 11.8289 9.28492 11.8842 9.36797C11.872 9.41909 11.872 9.41909 11.8449 9.47654C11.8349 9.4979 11.8249 9.51926 11.8146 9.54127C11.8033 9.56402 11.792 9.58676 11.7804 9.6102C11.7635 9.64512 11.7635 9.64512 11.7462 9.68074C11.6683 9.83726 11.5827 9.98685 11.4863 10.1327C11.4748 10.1502 11.4633 10.1677 11.4514 10.1858C11.3691 10.3056 11.3691 10.3056 11.2753 10.3369C11.1972 10.3197 11.1972 10.3197 11.1037 10.2911C11.0702 10.2811 11.0368 10.271 11.0023 10.2606C10.967 10.2497 10.9317 10.2388 10.8964 10.2279C10.8608 10.2171 10.8252 10.2063 10.7895 10.1955C10.7023 10.169 10.6151 10.1423 10.5279 10.1154C10.5095 10.1379 10.491 10.1603 10.472 10.1834C10.2976 10.3937 10.1156 10.59 9.91897 10.7798C9.92583 10.8002 9.93268 10.8206 9.93974 10.8416C9.9706 10.9339 10.001 11.0264 10.0314 11.1189C10.0476 11.167 10.0476 11.167 10.0641 11.2161C10.0742 11.247 10.0843 11.2779 10.0947 11.3097C10.1041 11.3381 10.1135 11.3665 10.1232 11.3958C10.1409 11.4739 10.1444 11.5099 10.1127 11.5826C9.99345 11.7188 9.82653 11.8132 9.67332 11.9062C9.65251 11.9192 9.63171 11.9323 9.61028 11.9458C9.46918 12.0321 9.33064 12.091 9.17162 12.1363C9.15237 12.1158 9.15237 12.1158 9.13273 12.0948C9.0742 12.0325 9.01565 11.9702 8.95711 11.9079C8.93691 11.8864 8.91671 11.8649 8.89591 11.8427C8.86647 11.8114 8.86647 11.8114 8.83644 11.7794C8.81847 11.7603 8.80049 11.7412 8.78197 11.7214C8.72816 11.6651 8.67335 11.6098 8.61803 11.5549C8.58624 11.566 8.55445 11.577 8.52169 11.5883C8.26973 11.6747 8.02141 11.7514 7.75996 11.8041C7.69245 12.0711 7.62691 12.3383 7.5662 12.6069C7.37143 12.637 7.18005 12.6387 6.9832 12.638C6.9515 12.6381 6.9198 12.6382 6.88713 12.6384C6.73232 12.6382 6.58376 12.6348 6.43134 12.6069C6.40352 12.4841 6.37589 12.3612 6.3483 12.2384C6.34038 12.2034 6.33246 12.1685 6.3243 12.1324C6.3168 12.099 6.30931 12.0655 6.30159 12.0311C6.29463 12.0002 6.28767 11.9693 6.28051 11.9375C6.26526 11.8594 6.26526 11.8594 6.26526 11.7764C6.23386 11.7747 6.20246 11.773 6.17011 11.7712C5.97459 11.7501 5.78882 11.6852 5.60168 11.6274C5.51871 11.6021 5.43531 11.5785 5.35183 11.5549C5.28486 11.6258 5.218 11.6968 5.15116 11.7677C5.13228 11.7877 5.1134 11.8077 5.09396 11.8282C5.00022 11.9279 4.90918 12.0275 4.82592 12.1363C4.51148 12.0856 4.08095 11.8065 3.85713 11.5826C3.86876 11.4011 3.91951 11.244 3.98169 11.0739C3.99058 11.049 3.99946 11.0241 4.00861 10.9984C4.07301 10.8186 4.07301 10.8186 4.10625 10.7521C4.0913 10.7462 4.07635 10.7403 4.06095 10.7342C3.97197 10.6833 3.90568 10.6137 3.83464 10.541C3.81241 10.5189 3.81241 10.5189 3.78972 10.4964C3.70588 10.412 3.63438 10.3263 3.56477 10.2296C3.52273 10.1763 3.52273 10.1763 3.46962 10.1431C3.36047 10.135 3.26827 10.1648 3.16514 10.1985C3.13421 10.2081 3.10327 10.2177 3.0714 10.2277C3.01054 10.2467 2.94989 10.2664 2.88953 10.2869C2.79919 10.3108 2.73201 10.322 2.63923 10.3092C2.58646 10.2584 2.58646 10.2584 2.54235 10.1881C2.52611 10.1626 2.50988 10.1372 2.49315 10.111C2.47742 10.085 2.46168 10.0591 2.44547 10.0324C2.43116 10.0101 2.41685 9.9879 2.40211 9.96499C2.29039 9.78732 2.17637 9.59627 2.11332 9.39565C2.14117 9.27995 2.24493 9.20154 2.32783 9.12055C2.34203 9.10637 2.35623 9.09218 2.37087 9.07757C2.48782 8.96192 2.48782 8.96192 2.54965 8.91821C2.60327 8.88229 2.60327 8.88229 2.66691 8.81431C2.67186 8.72137 2.67186 8.72137 2.63923 8.62053C2.63413 8.60033 2.62902 8.58014 2.62377 8.55933C2.60095 8.46967 2.576 8.38063 2.55111 8.29152C2.51306 8.15182 2.48771 8.0172 2.47315 7.87308C2.44197 7.86991 2.41078 7.86673 2.37865 7.86346C2.24619 7.84685 2.12049 7.81417 1.99222 7.77792C1.96992 7.77191 1.94762 7.7659 1.92464 7.7597C1.90334 7.75376 1.88204 7.74782 1.86009 7.7417C1.83133 7.7337 1.83133 7.7337 1.80199 7.72554C1.75348 7.70698 1.75348 7.70698 1.69812 7.65162C1.6689 7.54619 1.66688 7.44493 1.66676 7.33597C1.66673 7.30219 1.66669 7.26841 1.66666 7.23361C1.66682 7.18102 1.66682 7.18102 1.66698 7.12737C1.66687 7.09242 1.66677 7.05746 1.66666 7.02145C1.66669 6.98764 1.66673 6.95383 1.66676 6.91899C1.6668 6.88827 1.66683 6.85754 1.66686 6.82589C1.6704 6.73908 1.68194 6.65726 1.69812 6.57198C1.95178 6.48784 2.21222 6.4342 2.47315 6.3782C2.47753 6.35521 2.47753 6.35521 2.482 6.33176C2.5853 5.79304 2.5853 5.79304 2.65534 5.59961C2.67002 5.53376 2.66433 5.49961 2.63923 5.43697C2.59591 5.38254 2.59591 5.38254 2.54062 5.33143C2.52078 5.3123 2.50094 5.29318 2.4805 5.27347C2.40338 5.20218 2.32498 5.13264 2.24512 5.06444C2.22903 5.05034 2.21293 5.03625 2.19635 5.02173C2.17998 5.00906 2.1636 4.99639 2.14673 4.98334C2.11332 4.93868 2.11332 4.93868 2.1216 4.87404C2.14011 4.80363 2.16305 4.74684 2.19646 4.68239C2.20773 4.66064 2.21901 4.63888 2.23062 4.61647C2.24272 4.59376 2.25482 4.57105 2.26728 4.54765C2.28583 4.51268 2.28583 4.51268 2.30475 4.477C2.56541 3.99438 2.56541 3.99438 2.72227 3.94209C2.7854 3.95673 2.7854 3.95673 2.85872 3.98177C2.8853 3.9906 2.91188 3.99944 2.93927 4.00854C2.967 4.01801 2.99472 4.02748 3.02328 4.03725C3.07793 4.05585 3.13264 4.07428 3.18741 4.0925C3.21167 4.1008 3.23593 4.10909 3.26093 4.11764C3.33648 4.13723 3.39209 4.1462 3.46962 4.13587C3.52644 4.09509 3.52644 4.09509 3.57515 4.03681C3.59406 4.01608 3.61297 3.99535 3.63245 3.97399C3.65179 3.95204 3.67113 3.93009 3.69105 3.90748C3.92804 3.64379 3.92804 3.64379 4.05089 3.55452C4.00167 3.34757 3.94526 3.14501 3.87843 2.94301C3.85746 2.86369 3.84569 2.80527 3.85713 2.72403C3.89584 2.68099 3.89584 2.68099 3.95055 2.64444C3.97096 2.63049 3.99137 2.61654 4.0124 2.60216C4.04515 2.58027 4.04515 2.58027 4.07857 2.55793C4.09926 2.54248 4.11996 2.52703 4.14128 2.51111C4.61835 2.15801 4.61835 2.15801 4.79694 2.17573C4.8699 2.20447 4.90683 2.24356 4.96032 2.30078C4.97982 2.32155 4.99932 2.34232 5.01941 2.36372C5.03948 2.38556 5.05955 2.4074 5.08023 2.4299C5.10062 2.45152 5.12101 2.47315 5.14202 2.49543C5.29271 2.65737 5.29271 2.65737 5.32415 2.75171C5.3573 2.74101 5.39045 2.7303 5.4246 2.71927C5.70315 2.62994 5.98193 2.54762 6.26526 2.47488C6.26931 2.45337 6.27336 2.43185 6.27753 2.40969C6.29584 2.3126 6.31428 2.21553 6.33273 2.11846C6.3391 2.0846 6.34547 2.05073 6.35203 2.01584C6.35818 1.98355 6.36434 1.95125 6.37068 1.91798C6.37633 1.88811 6.38199 1.85825 6.38781 1.82748C6.40366 1.75512 6.40366 1.75512 6.43134 1.69976C6.62165 1.65598 6.82022 1.66801 7.01434 1.66861ZM4.63216 4.21892C4.59202 4.25403 4.59202 4.25403 4.55107 4.28985C3.82056 4.93905 3.33343 5.80849 3.24818 6.79344C3.19705 7.80946 3.44882 8.81599 4.14238 9.58741C4.70334 10.1984 5.33771 10.6459 6.15454 10.8352C6.17359 10.8397 6.19264 10.8442 6.21227 10.8488C6.7351 10.9667 7.29512 10.9633 7.81532 10.8352C7.84307 10.8287 7.84307 10.8287 7.87138 10.8221C8.81627 10.5969 9.64879 9.97748 10.1594 9.15516C10.6965 8.26295 10.8604 7.27478 10.6419 6.25827C10.3948 5.26682 9.76314 4.41983 8.89483 3.88672C8.75136 3.80388 8.60339 3.73222 8.45195 3.66525C8.43442 3.65744 8.41689 3.64963 8.39882 3.64159C7.18305 3.11264 5.63161 3.34155 4.63216 4.21892Z" fill="black"/>
<path d="M7.36424 4.91877C7.76399 5.21794 8.05281 5.59321 8.16208 6.08795C8.23171 6.60133 8.164 7.09478 7.85177 7.52152C7.83974 7.53704 7.82772 7.55257 7.81533 7.56856C7.85886 7.67542 7.91916 7.74576 8.00909 7.81771C8.10597 7.82232 8.10597 7.82232 8.20285 7.81771C8.30047 7.86747 8.37493 7.92747 8.45219 8.00455C8.47297 8.02516 8.49375 8.04577 8.51516 8.067C8.53719 8.08915 8.55923 8.1113 8.58193 8.13412C8.60488 8.15702 8.62783 8.17992 8.65148 8.20352C8.69989 8.2519 8.74824 8.30035 8.79651 8.34886C8.87035 8.42301 8.94448 8.49685 9.01864 8.57067C9.06569 8.61776 9.11272 8.66487 9.15974 8.712C9.18188 8.73404 9.20403 8.75607 9.22684 8.77877C9.25775 8.80995 9.25775 8.80995 9.28928 8.84175C9.30737 8.85988 9.32545 8.87801 9.34408 8.89669C9.45163 9.01968 9.49317 9.1157 9.48779 9.27702C9.46827 9.38275 9.41502 9.46061 9.33771 9.53406C9.22118 9.60499 9.1109 9.61437 8.97788 9.58942C8.82607 9.5108 8.72215 9.38949 8.61804 9.25723C8.57233 9.21067 8.52612 9.1646 8.47964 9.11881C8.45252 9.09186 8.4254 9.06489 8.39831 9.03791C8.384 9.02368 8.36969 9.00946 8.35495 8.99481C8.291 8.93122 8.22712 8.86756 8.16325 8.8039C8.1295 8.77029 8.09573 8.7367 8.06193 8.70314C8.01297 8.6545 7.96409 8.60578 7.91524 8.55704C7.90007 8.54202 7.88491 8.52699 7.86928 8.51151C7.76965 8.41189 7.73121 8.35965 7.71845 8.22084C7.71136 8.14396 7.7016 8.0855 7.67693 8.01149C7.60685 7.96798 7.53726 7.93918 7.4555 7.92844C7.39414 7.95675 7.39414 7.95675 7.33267 8.00111C6.89249 8.27908 6.42805 8.33992 5.92706 8.2322C5.65503 8.16221 5.43459 8.04437 5.21344 7.87307C5.19646 7.86098 5.17948 7.84888 5.16198 7.83642C4.81313 7.56994 4.62871 7.12517 4.56308 6.70433C4.49726 6.21036 4.63894 5.72323 4.93665 5.32623C5.53276 4.62798 6.57102 4.39699 7.36424 4.91877ZM5.24091 5.55213C4.94982 5.89934 4.90282 6.30215 4.93665 6.73807C4.98912 7.01155 5.13397 7.28171 5.32416 7.48551C5.34243 7.48551 5.3607 7.48551 5.37952 7.48551C5.37952 7.50378 5.37952 7.52205 5.37952 7.54088C5.66733 7.78485 5.99667 7.91219 6.37253 7.90941C6.39442 7.90927 6.41631 7.90914 6.43886 7.909C6.60503 7.90567 6.74844 7.88445 6.9019 7.81771C6.92445 7.80861 6.947 7.79951 6.97024 7.79013C7.27542 7.65401 7.55821 7.39314 7.69088 7.084C7.84274 6.66904 7.86942 6.2744 7.7005 5.85664C7.52302 5.49907 7.23125 5.21622 6.85346 5.08227C6.23732 4.88823 5.66577 5.09497 5.24091 5.55213Z" fill="black"/>
<path d="M17.732 11V2.48H21.644C22.06 2.48 22.444 2.564 22.796 2.732C23.148 2.9 23.452 3.128 23.708 3.416C23.964 3.696 24.16 4.012 24.296 4.364C24.44 4.716 24.512 5.072 24.512 5.432C24.512 5.76 24.464 6.076 24.368 6.38C24.272 6.684 24.132 6.964 23.948 7.22C23.764 7.468 23.544 7.684 23.288 7.868L25.088 11H22.52L21.02 8.384H20.072V11H17.732ZM20.072 6.344H21.548C21.644 6.344 21.736 6.308 21.824 6.236C21.912 6.164 21.984 6.06 22.04 5.924C22.104 5.788 22.136 5.624 22.136 5.432C22.136 5.232 22.1 5.068 22.028 4.94C21.964 4.804 21.88 4.7 21.776 4.628C21.68 4.556 21.584 4.52 21.488 4.52H20.072V6.344ZM29.5642 11.072C28.9162 11.072 28.3282 10.952 27.8002 10.712C27.2722 10.464 26.8162 10.136 26.4322 9.728C26.0562 9.312 25.7642 8.848 25.5562 8.336C25.3562 7.816 25.2562 7.28 25.2562 6.728C25.2562 6.16 25.3642 5.62 25.5802 5.108C25.7962 4.596 26.0962 4.14 26.4802 3.74C26.8722 3.332 27.3322 3.012 27.8602 2.78C28.3962 2.548 28.9802 2.432 29.6122 2.432C30.2602 2.432 30.8482 2.556 31.3762 2.804C31.9042 3.044 32.3562 3.372 32.7322 3.788C33.1082 4.204 33.3962 4.672 33.5962 5.192C33.8042 5.704 33.9082 6.232 33.9082 6.776C33.9082 7.336 33.8002 7.872 33.5842 8.384C33.3762 8.896 33.0762 9.356 32.6842 9.764C32.3002 10.164 31.8442 10.484 31.3162 10.724C30.7882 10.956 30.2042 11.072 29.5642 11.072ZM27.6322 6.752C27.6322 7.04 27.6722 7.32 27.7522 7.592C27.8322 7.856 27.9522 8.096 28.1122 8.312C28.2722 8.52 28.4722 8.688 28.7122 8.816C28.9602 8.936 29.2522 8.996 29.5882 8.996C29.9242 8.996 30.2162 8.932 30.4642 8.804C30.7122 8.676 30.9122 8.504 31.0642 8.288C31.2242 8.064 31.3402 7.82 31.4122 7.556C31.4922 7.284 31.5322 7.008 31.5322 6.728C31.5322 6.44 31.4922 6.164 31.4122 5.9C31.3322 5.636 31.2122 5.4 31.0522 5.192C30.8922 4.976 30.6882 4.808 30.4402 4.688C30.1922 4.568 29.9042 4.508 29.5762 4.508C29.2402 4.508 28.9482 4.572 28.7002 4.7C28.4602 4.828 28.2602 5 28.1002 5.216C27.9402 5.424 27.8202 5.664 27.7402 5.936C27.6682 6.2 27.6322 6.472 27.6322 6.752ZM34.9 11V2.48H38.176C39.12 2.48 39.908 2.672 40.54 3.056C41.18 3.432 41.66 3.944 41.98 4.592C42.308 5.232 42.472 5.944 42.472 6.728C42.472 7.592 42.292 8.344 41.932 8.984C41.58 9.624 41.08 10.12 40.432 10.472C39.792 10.824 39.04 11 38.176 11H34.9ZM40.096 6.728C40.096 6.288 40.02 5.904 39.868 5.576C39.716 5.24 39.496 4.98 39.208 4.796C38.92 4.612 38.576 4.52 38.176 4.52H37.24V8.96H38.176C38.584 8.96 38.928 8.864 39.208 8.672C39.496 8.48 39.716 8.216 39.868 7.88C40.02 7.536 40.096 7.152 40.096 6.728ZM45.1063 2.48H47.7223L50.4343 11H48.0583L47.5423 9.332H45.2743L44.7703 11H42.3822L45.1063 2.48ZM47.1703 7.772L46.4143 4.772L45.6223 7.772H47.1703ZM51.1422 11V2.48H56.9862V4.52H53.4822V5.936H56.3382V7.832H53.4822V11H51.1422ZM63.9759 8.96V11H57.9039V2.48H63.8679V4.52H60.2439V5.72H63.3399V7.616H60.2439V8.96H63.9759Z" fill="black"/>
</svg>
